# xmcd
#
# Track frame offsets:
# 150
# 13245
# 25240
# 36430
# 49806
# 61779
# 71916
# 83511
# 95106
# 125731
# 135814
# 149001
# 189235
# 202152
# 216338
#
# Disc length: 3056 seconds
#
#
# Revision: 0
# Processed by: cddbd v1.5.1PL0 Copyright (c) Steve Scherf et al.
# Submitted via: FreeRIP 2.91 
#
DISCID=e50bee0f
DTITLE=luiz gonzaga - o melhor de luiz gonzaga
DYEAR=2004
DGENRE=Folklore
TTITLE0=asa branca
TTITLE1=cintura fina
TTITLE2=17 e 700 (dezessete e setecentos)
TTITLE3=paraíba
TTITLE4=assum preto
TTITLE5=ovo de codorna
TTITLE6=o xote das meninas
TTITLE7=boiadeiro
TTITLE8=karolina com k
TTITLE9=forró de mané vito
TTITLE10=apologia ao jumento (o jumento é nosso irmão)
TTITLE11=a triste partida
TTITLE12=derramaro o gai
TTITLE13=lorata boa
TTITLE14=a moda da mula preta
EXTD=Informações adicionadas por danielsan.
EXTT0=
EXTT1=
EXTT2=
EXTT3=
EXTT4=
EXTT5=
EXTT6=
EXTT7=
EXTT8=
EXTT9=
EXTT10=
EXTT11=
EXTT12=
EXTT13=
EXTT14=
PLAYORDER=
